<svg xmlns="http://www.w3.org/2000/svg" viewBox="0 0 380 100" width="760" height="200">
  <defs>
    <marker id="dbArrow" viewBox="0 0 12 10" refX="10.8" refY="5" markerWidth="4.8" markerHeight="4.8" orient="auto-start-reverse" markerUnits="strokeWidth"><path d="M0,2 L12,5 L0,8 z" fill="#22C55E"></path></marker>
    <linearGradient id="dbNode" x1="0" y1="0" x2="1" y2="0"><stop offset="0" stop-color="#F4B62B"></stop><stop offset="0.5" stop-color="#7C9E6F"></stop><stop offset="1" stop-color="#2563EB"></stop></linearGradient>
  </defs>
  <g transform="translate(0,14) scale(0.72)">
<g fill="none" stroke="#0C7B83" stroke-width="2.8" stroke-linecap="round">
    <circle cx="50" cy="50" r="37"></circle>
    <ellipse cx="50" cy="50" rx="13" ry="37"></ellipse>
    <line x1="13" y1="50" x2="87" y2="50"></line>
    <line x1="17.1" y1="33" x2="82.9" y2="33"></line>
    <line x1="17.1" y1="67" x2="82.9" y2="67"></line>
  </g>
  <g fill="none" stroke="#0C7B83" stroke-width="0.9" stroke-dasharray="0.1 2.4" stroke-linecap="round" opacity="0.5">
    <line x1="30" y1="27" x2="50" y2="20"></line>
    <line x1="50" y1="20" x2="70" y2="27"></line>
    <line x1="70" y1="27" x2="76" y2="42"></line>
    <line x1="76" y1="42" x2="72" y2="60"></line>
    <line x1="72" y1="60" x2="66" y2="73"></line>
    <line x1="66" y1="73" x2="50" y2="79"></line>
    <line x1="50" y1="79" x2="34" y2="73"></line>
    <line x1="34" y1="73" x2="24" y2="42"></line>
    <line x1="24" y1="42" x2="30" y2="27"></line>
  </g>
  <g fill="none" stroke="#F4B62B" stroke-width="1.7" stroke-dasharray="0.1 3" stroke-linecap="round">
    <line x1="30" y1="64" x2="24" y2="42"></line>
    <line x1="30" y1="64" x2="34" y2="73"></line>
    <line x1="30" y1="64" x2="50" y2="20"></line>
    <line x1="30" y1="64" x2="72" y2="60"></line>
  </g>
  <g fill="#0C7B83">
    <circle cx="30" cy="27" r="1.7"></circle>
    <circle cx="70" cy="27" r="1.7"></circle>
    <circle cx="24" cy="42" r="1.7"></circle>
    <circle cx="76" cy="42" r="1.7"></circle>
    <circle cx="34" cy="73" r="1.7"></circle>
    <circle cx="66" cy="73" r="1.7"></circle>
    <circle cx="50" cy="79" r="1.7"></circle>
  </g>
  <g fill="#F4B62B">
    <circle cx="50" cy="20" r="1.9"></circle>
    <circle cx="72" cy="60" r="1.9"></circle>
  </g>
  <circle cx="30" cy="64" r="4.6" fill="none" stroke="#F4B62B" stroke-width="2.8"></circle>
  <circle cx="30" cy="64" r="1.9" fill="#F4B62B"></circle>
  <circle cx="50" cy="50" r="8.2" fill="#ffffff"></circle>
  <g fill="none" stroke="#0C7B83" stroke-width="2.8" stroke-linecap="round" stroke-linejoin="round">
    <ellipse cx="50" cy="44.75" rx="6" ry="1.8"></ellipse>
    <path d="M44,44.75 V55.25"></path>
    <path d="M56,44.75 V55.25"></path>
    <path d="M44,55.25 A6,1.8 0 0 0 56,55.25"></path>
  </g>
  <line x1="30" y1="64" x2="45.6" y2="53.1" stroke="#22C55E" stroke-width="2" stroke-linecap="round" marker-end="url(#dbArrow)"></line>
  <circle cx="50" cy="52" r="2" fill="url(#dbNode)"></circle>
  </g>
  <text x="90" y="64" font-family="&#39;Space Grotesk&#39;,sans-serif" font-size="46" letter-spacing="-1.6" fill="#0C7B83"><tspan font-weight="700">DB</tspan><tspan font-weight="500">Atlas</tspan></text>
</svg>